<svg xmlns="http://www.w3.org/2000/svg" viewBox="0 0 24 24"><defs><style>.cls-1,.cls-2,.cls-3{fill:none;stroke-miterlimit:10;}.cls-1,.cls-2{stroke:#bfbfbf;}.cls-1{stroke-width:0.02px;}.cls-2{stroke-width:0.1px;}.cls-3{stroke:#313131;stroke-linecap:square;stroke-width:3px;}</style></defs><title>checkbox</title><g id="Grids"><g id="Secondary_Grid" data-name="Secondary Grid"><line class="cls-1" x1="1" x2="1" y2="24"/><line class="cls-1" x1="2" x2="2" y2="24"/><line class="cls-1" x1="3" x2="3" y2="24"/><line class="cls-1" x1="4" x2="4" y2="24"/><line class="cls-1" x1="5" x2="5" y2="24"/><line class="cls-1" x1="6" x2="6" y2="24"/><line class="cls-1" x1="7" x2="7" y2="24"/><line class="cls-1" x1="8" x2="8" y2="24"/><line class="cls-1" x1="9" x2="9" y2="24"/><line class="cls-1" x1="10" x2="10" y2="24"/><line class="cls-1" x1="11" x2="11" y2="24"/><line class="cls-1" x1="13" x2="13" y2="24"/><line class="cls-1" x1="14" x2="14" y2="24"/><line class="cls-1" x1="15" x2="15" y2="24"/><line class="cls-1" x1="16" x2="16" y2="24"/><line class="cls-1" x1="17" x2="17" y2="24"/><line class="cls-1" x1="18" x2="18" y2="24"/><line class="cls-1" x1="19" x2="19" y2="24"/><line class="cls-1" x1="20" x2="20" y2="24"/><line class="cls-1" x1="21" x2="21" y2="24"/><line class="cls-1" x1="22" x2="22" y2="24"/><line class="cls-1" x1="23" x2="23" y2="24"/><line class="cls-1" x1="24" y1="1" y2="1"/><line class="cls-1" x1="24" y1="2" y2="2"/><line class="cls-1" x1="24" y1="3" y2="3"/><line class="cls-1" x1="24" y1="4" y2="4"/><line class="cls-1" x1="24" y1="5" y2="5"/><line class="cls-1" x1="24" y1="6" y2="6"/><line class="cls-1" x1="24" y1="7" y2="7"/><line class="cls-1" x1="24" y1="8" y2="8"/><line class="cls-1" x1="24" y1="9" y2="9"/><line class="cls-1" x1="24" y1="10" y2="10"/><line class="cls-1" x1="24" y1="11" y2="11"/><line class="cls-1" x1="24" y1="13" y2="13"/><line class="cls-1" x1="24" y1="14" y2="14"/><line class="cls-1" x1="24" y1="15" y2="15"/><line class="cls-1" x1="24" y1="16" y2="16"/><line class="cls-1" x1="24" y1="17" y2="17"/><line class="cls-1" x1="24" y1="18" y2="18"/><line class="cls-1" x1="24" y1="19" y2="19"/><line class="cls-1" x1="24" y1="20" y2="20"/><line class="cls-1" x1="24" y1="21" y2="21"/><line class="cls-1" x1="24" y1="22" y2="22"/><line class="cls-1" x1="24" y1="23" y2="23"/></g><g id="Main_Grid" data-name="Main Grid"><line class="cls-2" x1="12" x2="12" y2="24"/><rect class="cls-2" x="2" y="2" width="20" height="20"/><rect class="cls-2" x="4" y="4" width="16" height="16"/><rect class="cls-2" x="6" y="6" width="12" height="12"/><line class="cls-2" x1="24" y1="12" y2="12"/></g></g><g id="Icons"><polyline class="cls-3" points="5 13 9 17 19 7"/></g></svg>